<?xml version="1.0" standalone="no"?>
<!DOCTYPE svg PUBLIC "-//W3C//DTD SVG 20010904//EN"
 "http://www.w3.org/TR/2001/REC-SVG-20010904/DTD/svg10.dtd">
<svg version="1.0" xmlns="http://www.w3.org/2000/svg"
 width="512.000000pt" height="512.000000pt" viewBox="0 0 512.000000 512.000000"
 preserveAspectRatio="xMidYMid meet">

<g transform="translate(0.000000,512.000000) scale(0.100000,-0.100000)"
fill="#000000" stroke="none">
<path d="M3127 4600 c-86 -22 -188 -97 -223 -162 -27 -52 8 -108 68 -108 19 0
41 15 80 54 76 78 163 95 249 51 64 -34 129 -6 129 55 0 39 -35 73 -98 95 -59
20 -155 27 -205 15z"/>
<path d="M3230 4199 c-65 -13 -140 -53 -182 -96 -20 -21 -179 -265 -353 -543
-175 -278 -319 -507 -322 -509 -2 -3 -11 6 -20 20 -30 43 -86 89 -140 115 -99
46 -115 45 -743 -60 -316 -53 -585 -101 -598 -106 -50 -21 -53 -95 -5 -127 25
-17 45 -14 617 82 549 92 595 99 634 87 57 -17 117 -73 136 -125 8 -23 81
-436 162 -917 133 -797 145 -879 135 -918 -16 -56 -71 -117 -124 -136 -23 -8
-436 -81 -917 -162 -796 -133 -879 -145 -918 -135 -53 15 -113 67 -135 118
-16 37 -307 1743 -307 1800 0 16 12 53 26 82 41 82 73 97 270 131 139 24 172
33 187 51 39 48 6 119 -56 119 -18 0 -98 -11 -177 -25 -220 -38 -305 -89 -366
-221 -48 -102 -49 -90 115 -1064 166 -980 160 -958 245 -1042 54 -54 120 -87
199 -100 58 -10 111 -2 782 111 1012 171 1055 179 1108 197 67 23 153 104 188
178 51 108 54 83 -100 995 -78 459 -141 840 -141 847 0 13 690 1116 719 1148
47 53 171 78 231 46 32 -17 1441 -903 1497 -941 63 -44 88 -91 88 -169 0 -59
-4 -72 -40 -131 -22 -36 -240 -384 -485 -773 -359 -570 -452 -712 -483 -733
-53 -37 -146 -44 -203 -15 -21 11 -237 145 -479 298 -472 298 -486 304 -526
255 -25 -31 -24 -64 4 -95 31 -34 910 -585 972 -609 38 -14 69 -18 130 -15 98
4 174 36 236 100 46 46 940 1460 992 1568 28 57 32 75 32 150 0 77 -4 93 -33
153 -22 43 -50 81 -80 107 -59 50 -1475 942 -1557 980 -67 32 -148 43 -215 29z"/>
<path d="M3333 3534 c-190 -70 -238 -330 -86 -464 137 -120 346 -80 427 82 52
104 26 254 -56 323 -80 67 -197 92 -285 59z m161 -153 c38 -26 55 -57 56 -104
1 -142 -188 -176 -239 -43 -41 107 87 210 183 147z"/>
<path d="M4075 3047 c-56 -27 -119 -91 -143 -146 -26 -59 -21 -166 10 -226 51
-99 134 -149 243 -149 158 0 264 101 273 260 6 110 -40 195 -135 251 -67 39
-178 44 -248 10z m175 -142 c37 -19 60 -63 60 -115 0 -32 -7 -48 -34 -78 -31
-33 -40 -37 -83 -37 -60 0 -99 24 -120 72 -20 50 -9 99 32 140 27 27 41 33 74
33 23 0 55 -7 71 -15z"/>
<path d="M2854 2774 c-147 -52 -219 -239 -148 -382 101 -204 402 -198 495 10
98 222 -118 453 -347 372z m167 -157 c19 -13 40 -39 48 -61 13 -33 13 -44 0
-79 -46 -134 -239 -103 -239 38 0 103 105 160 191 102z"/>
<path d="M746 2494 c-33 -11 -65 -32 -102 -68 -108 -109 -112 -265 -8 -376 62
-66 128 -93 213 -88 80 5 132 29 188 85 125 129 84 351 -80 435 -54 27 -147
33 -211 12z m181 -178 c80 -87 9 -219 -108 -203 -79 10 -124 85 -98 161 32 92
140 114 206 42z"/>
<path d="M3595 2286 c-171 -81 -212 -308 -80 -441 134 -133 354 -98 439 69 25
48 30 69 29 124 -1 79 -20 127 -71 184 -78 87 -212 114 -317 64z m194 -152
c68 -57 56 -170 -22 -207 -46 -22 -75 -21 -114 3 -76 46 -89 136 -29 196 30
30 40 34 84 34 40 0 57 -6 81 -26z"/>
<path d="M1755 1746 c-100 -47 -157 -140 -156 -252 0 -78 24 -136 76 -189 140
-139 373 -92 452 92 21 49 20 156 -1 206 -61 140 -235 208 -371 143z m194
-152 c17 -14 36 -43 42 -64 10 -33 9 -44 -10 -83 -33 -68 -99 -94 -159 -63
-86 45 -102 151 -31 210 43 36 115 36 158 0z"/>
<path d="M4144 980 c-11 -4 -32 -24 -48 -44 -58 -76 -164 -100 -260 -58 -54
25 -89 21 -111 -11 -61 -88 89 -179 257 -157 137 19 287 148 259 222 -16 42
-59 63 -97 48z"/>
</g>
</svg>
