<?xml version="1.0" standalone="no"?>
<!DOCTYPE svg PUBLIC "-//W3C//DTD SVG 20010904//EN"
 "http://www.w3.org/TR/2001/REC-SVG-20010904/DTD/svg10.dtd">
<svg version="1.0" xmlns="http://www.w3.org/2000/svg"
 width="512.000000pt" height="512.000000pt" viewBox="0 0 512.000000 512.000000"
 preserveAspectRatio="xMidYMid meet">

<g transform="translate(0.000000,512.000000) scale(0.100000,-0.100000)"
fill="#000000" stroke="none">
<path d="M2330 5110 c-494 -48 -950 -230 -1350 -538 -195 -150 -448 -432 -594
-662 -63 -99 -186 -351 -230 -471 -51 -139 -103 -344 -128 -504 -31 -200 -31
-550 0 -750 43 -273 114 -500 237 -750 132 -269 269 -460 489 -681 221 -220
412 -357 681 -489 247 -121 469 -192 745 -237 195 -31 565 -31 760 0 276 45
498 116 745 237 269 132 460 269 681 489 220 221 357 412 489 681 123 250 194
477 237 750 31 200 31 550 0 750 -43 273 -114 500 -237 750 -132 269 -269 460
-489 681 -221 220 -412 357 -681 489 -246 121 -474 193 -740 235 -147 23 -475
34 -615 20z m494 -475 c358 -50 659 -167 938 -365 50 -36 93 -70 95 -75 2 -6
-656 -669 -1461 -1474 -1253 -1253 -1467 -1463 -1480 -1452 -25 21 -161 230
-210 321 -265 502 -310 1117 -122 1656 105 300 268 557 500 790 327 327 719
525 1171 594 154 23 421 26 569 5z m1446 -873 c387 -547 487 -1255 266 -1888
-105 -300 -268 -557 -500 -790 -331 -330 -722 -527 -1181 -595 -420 -62 -889
19 -1265 217 -91 49 -300 185 -321 210 -11 13 199 227 1452 1480 805 805 1468
1463 1474 1461 5 -2 39 -45 75 -95z"/>
</g>
</svg>
