<?xml version="1.0" standalone="no"?>
<!DOCTYPE svg PUBLIC "-//W3C//DTD SVG 20010904//EN"
 "http://www.w3.org/TR/2001/REC-SVG-20010904/DTD/svg10.dtd">
<svg version="1.0" xmlns="http://www.w3.org/2000/svg"
 width="512.000000pt" height="512.000000pt" viewBox="0 0 512.000000 512.000000"
 preserveAspectRatio="xMidYMid meet">

<g transform="translate(0.000000,512.000000) scale(0.100000,-0.100000)"
fill="#000000" stroke="none">
<path d="M2001 5098 c-94 -46 -225 -193 -346 -389 -111 -179 -271 -516 -311
-656 -9 -32 -17 -59 -18 -60 -1 -1 -62 -14 -136 -28 -402 -78 -754 -200 -949
-329 -89 -59 -176 -152 -209 -223 -22 -47 -27 -73 -27 -133 0 -66 4 -84 34
-145 110 -222 473 -427 1020 -576 80 -21 148 -42 152 -46 4 -5 10 -53 14 -108
l7 -100 -89 -50 c-313 -174 -1144 -709 -1127 -725 5 -4 110 -40 234 -80 457
-145 536 -172 594 -198 l58 -27 -201 -139 c-111 -76 -203 -142 -206 -146 -3
-4 174 -217 393 -474 l397 -466 413 0 c348 0 412 2 412 14 0 14 -206 1229
-215 1273 -5 21 2 19 84 -25 l90 -47 11 -65 c6 -36 53 -308 104 -605 l92 -540
281 -3 c262 -2 282 -1 287 15 3 10 51 279 106 598 56 319 107 585 113 591 21
20 167 93 167 84 0 -5 -50 -290 -110 -634 -60 -343 -110 -632 -110 -640 0 -14
44 -16 413 -16 l412 0 393 461 c217 254 395 466 397 472 3 7 -88 75 -201 152
l-205 140 59 27 c58 26 200 74 607 203 116 37 214 70 219 75 17 16 -739 502
-1082 695 l-142 80 6 100 c3 55 10 104 14 108 4 4 60 21 125 38 550 140 945
358 1056 584 30 61 34 79 34 145 0 96 -32 167 -112 251 -173 182 -577 344
-1078 434 -55 10 -105 23 -111 29 -6 6 -17 33 -23 60 -20 81 -97 270 -181 441
-192 393 -407 625 -580 625 -21 0 -62 -13 -97 -30 -60 -30 -99 -67 -246 -233
-38 -43 -82 -84 -98 -92 -26 -14 -32 -14 -58 0 -16 8 -62 52 -103 97 -151 170
-181 198 -241 228 -72 36 -125 38 -186 8z m-535 -1335 c97 -125 506 -224 989
-239 541 -18 1085 89 1210 238 26 31 33 33 101 36 l72 4 6 -43 c15 -105 46
-402 46 -435 0 -155 -224 -291 -607 -369 -243 -49 -374 -60 -723 -60 -341 0
-477 11 -705 56 -325 65 -538 168 -599 290 -14 29 -26 67 -26 83 0 17 14 130
30 251 16 121 30 222 30 224 0 2 34 1 75 -1 71 -3 77 -5 101 -35z m269 -1331
c301 -42 399 -47 830 -47 439 0 584 9 896 55 74 11 165 20 202 20 l69 0 -6
-62 c-24 -252 -38 -384 -47 -453 l-11 -80 -127 -125 c-343 -339 -792 -542
-1084 -491 -199 35 -502 190 -716 369 -99 82 -281 264 -292 291 -13 31 -35
189 -49 336 -5 66 -13 142 -16 169 l-6 48 103 -5 c57 -3 172 -14 254 -25z"/>
</g>
</svg>
